<?xml version="1.0" encoding="UTF-8"?>
<svg width="202px" height="42px" viewBox="0 0 202 42" version="1.1" xmlns="http://www.w3.org/2000/svg">
  <g id="KUOKOA" transform="translate(1.000000, 0.500000)" fill="#fff">
      <polygon id="A" points="190.9979 28.75 183.0649 9.79 170.5189 39.328 165.9039 39.328 183.1769 0 199.9999 39.328 195.3869 39.328"></polygon>
      <path d="M131.8118,20.5922 C131.8118,29.2002 138.6198,36.0642 147.0598,36.0642 C155.4988,36.0642 162.3068,29.2002 162.3068,20.5922 C162.3068,11.9842 155.4988,5.1192 147.0598,5.1192 C138.6198,5.1192 131.8118,11.9842 131.8118,20.5922 M127.5368,20.5922 C127.5368,9.3962 136.2568,1.1812 147.0598,1.1812 C157.8618,1.1812 166.5828,9.3962 166.5828,20.5922 C166.5828,31.7322 157.9178,40.0032 147.0598,40.0032 C136.2008,40.0032 127.5368,31.7322 127.5368,20.5922" id="O"></path>
      <polyline id="K" points="107.5086 39.3276 103.3456 39.3276 103.3456 1.8006 107.5086 1.8006 107.5086 17.8916 123.4876 1.8006 129.1136 1.8006 111.5596 19.2986 129.6756 39.3276 123.9376 39.3276 107.4986 20.9016"></polyline>
      <path d="M63.7401,20.5922 C63.7401,29.2002 70.5481,36.0642 78.9881,36.0642 C87.4271,36.0642 94.2351,29.2002 94.2351,20.5922 C94.2351,11.9842 87.4271,5.1192 78.9881,5.1192 C70.5481,5.1192 63.7401,11.9842 63.7401,20.5922 M59.4651,20.5922 C59.4651,9.3962 68.1851,1.1812 78.9881,1.1812 C89.7901,1.1812 98.5111,9.3962 98.5111,20.5922 C98.5111,31.7322 89.8461,40.0032 78.9881,40.0032 C68.1291,40.0032 59.4651,31.7322 59.4651,20.5922" id="O"></path>
      <path d="M32.1238,24.8115 C32.1238,27.9625 32.1238,31.3945 35.1058,33.9265 C36.6248,35.2205 39.2128,36.0645 41.2948,36.0645 C43.3758,36.0645 45.9638,35.2205 47.4828,33.9265 C50.4658,31.3945 50.4658,27.9625 50.4658,24.8115 L50.4658,1.8005 L54.6288,1.8005 L54.6288,25.9375 C54.6288,29.0875 54.2908,32.1255 52.2658,34.9395 C50.0148,38.0335 46.0768,40.0025 41.2948,40.0025 C36.5118,40.0025 32.5738,38.0335 30.3228,34.9395 C28.2978,32.1255 27.9598,29.0875 27.9598,25.9375 L27.9598,1.8005 L32.1238,1.8005 L32.1238,24.8115 Z" id="U"></path>
      <polygon id="K" points="20.142 1.8007 4.163 17.8917 4.163 1.8007 0 1.8007 0 39.3277 4.163 39.3277 4.154 20.9017 20.592 39.3277 26.331 39.3277 8.214 19.2987 25.769 1.8007"></polygon>
  </g>
</svg>