<?xml version="1.0" encoding="UTF-8"?>
<svg width="76px" height="77px" viewBox="0 0 76 77" version="1.1" xmlns="http://www.w3.org/2000/svg">
    <g id="Page-1" stroke="none" stroke-width="1" fill="none" fill-rule="evenodd">
        <path d="M5.68434189e-14,5.46193155 C5.68434189e-14,2.44620363 2.50672195,0 5.59906566,0 L70.1682456,0 C73.2604874,0 75.7673113,2.44620363 75.7673113,5.46193155 L75.7673113,70.7860623 C75.7673113,73.8028091 73.2604874,76.2479939 70.1682456,76.2479939 L5.59906566,76.2479939 C2.50672195,76.2479939 0,73.8028091 0,70.7860623 L0,5.46193155 L5.68434189e-14,5.46193155 Z M22.9674171,63.8274739 L22.9674171,29.3972343 L11.5234428,29.3972343 L11.5234428,63.8274739 L22.9674171,63.8274739 Z M17.245379,24.6963665 C21.2361243,24.6963665 23.7200246,22.0525104 23.7200246,18.7484545 C23.6456502,15.3700241 21.2361243,12.7995236 17.3210778,12.7995236 C13.4064388,12.7995236 10.8469417,15.3700241 10.8469417,18.7484545 C10.8469417,22.0525104 13.3303325,24.6963665 17.1708008,24.6963665 L17.245379,24.6963665 Z M29.2997325,63.8274739 L40.7436049,63.8274739 L40.7436049,44.6001708 C40.7436049,43.5711555 40.8179793,42.543159 41.1201634,41.8075659 C41.9474509,39.7515731 43.830447,37.6222246 46.9918671,37.6222246 C51.1328895,37.6222246 52.7894003,40.7795695 52.7894003,45.4081006 L52.7894003,63.8274739 L64.2323557,63.8274739 L64.2323557,44.0856631 C64.2323557,33.5102389 58.5865259,28.5893044 51.0572925,28.5893044 C44.8836084,28.5893044 42.1733248,32.0400715 40.6674985,34.3905054 L40.7439106,34.3905054 L40.7439106,29.3972343 L29.3000382,29.3972343 C29.4502133,32.6279347 29.2997325,63.8274739 29.2997325,63.8274739 Z" id="Shape" fill="#FFFFFF" fill-rule="nonzero"></path>
    </g>
</svg>